<svg xmlns="http://www.w3.org/2000/svg" xmlns:xlink="http://www.w3.org/1999/xlink" version="1.1" x="0px" y="0px" viewBox="0 0 512 512" enable-background="new 0 0 512 512" xml:space="preserve"><path d="M487.094,144.873c16.094-16.109,24.891-37.407,24.906-60.063c0-22.672-8.781-43.954-24.75-59.938  C471.155,8.777,449.874-0.004,427.233-0.004c-22.704,0-44.017,8.812-60.017,24.812c-1.859,1.922-3.547,3.781-5.125,5.625  L95.9,322.907c-2.828,3.344-2.906,8.203-0.172,11.609l4.453,5.547L6.055,387.158c-1.516,0.625-2.516,1.312-3.422,2.188  c-1.844,1.844-2.797,4.453-2.609,7.094v106.252c0.047,2.703,0.984,4.938,2.672,6.594c1.672,1.703,3.906,2.641,6.281,2.688h106.143  l1.094,0.031c2.438,0,4.734-0.953,6.453-2.688c0.875-0.844,1.531-1.844,1.984-2.969l47.282-94.533l5.547,4.47  c3.281,2.609,8.422,2.547,11.625-0.234l292.317-266.021C483.406,148.342,485.266,146.623,487.094,144.873z M110.557,493.77H18.242  l-0.016-92.361l96.205-48.126l15.703,15.704l-52.001,51.985c-3.531,3.562-3.531,9.328,0.016,12.891c3.422,3.422,9.406,3.422,12.86,0  l52-52.001l15.704,15.703L110.557,493.77z M469.624,136.186l-286.16,260.41L115.4,328.532L375.592,42.653  c1.531-1.797,2.969-3.391,4.5-5c12.656-12.594,29.359-19.469,47.142-19.469c17.766,0,34.484,6.891,47.016,19.438  c26.032,26.016,26.048,68.204,0.172,94.189C472.765,133.404,471.187,134.842,469.624,136.186z"/></svg>