<svg xmlns="http://www.w3.org/2000/svg" xmlns:xlink="http://www.w3.org/1999/xlink" version="1.1" x="0px" y="0px" viewBox="0 0 512 512" enable-background="new 0 0 512 512" xml:space="preserve"><path d="M45.156,388.377c-26.924,9.011-45.023,34.232-45.023,62.717V512h511.734v-60.906  c0-28.484-18.1-53.706-45.039-62.717l-1.75-0.516c-29.859-8.105-51.77-15.82-64.95-20.91c-46.694-17.944-58.86-30.906-61.952-37.044  c-4.436-8.808-2.03-22.348,6.762-38.12c3.826-5.264,7.168-10.152,10.292-15.133l2.218-3.639  c9.838-16.414,17.771-34.232,23.566-52.958c6.98-22.551,10.916-46.632,11.665-71.557c0.609-20.411-2.843-40.275-10.214-59.062  c-7.074-17.96-17.428-34.061-30.765-47.882C325.838,14.867,291.902,0.109,256.156,0c-36.06,0.109-69.995,14.867-95.857,41.557  c-13.336,13.821-23.69,29.922-30.765,47.882c-7.371,18.787-10.823,38.651-10.214,59.062c0.75,24.925,4.686,49.006,11.666,71.557  c5.794,18.726,13.728,36.544,23.566,52.958l2.217,3.639c3.124,4.98,6.466,9.869,9.901,14.523  c9.183,16.397,11.588,29.922,7.153,38.729c-3.093,6.138-15.258,19.1-61.969,37.075c-13.164,5.059-35.075,12.773-64.654,20.801  L45.156,388.377z M118.384,383.957c17.226-6.605,31.64-13.273,42.853-19.786c14.961-8.745,24.409-17.257,28.845-26.05  c7.449-14.82,4.794-34.216-7.637-56.127c-3.654-5.028-6.622-9.322-9.417-13.695l-0.859-1.375  c-21.676-34.669-33.326-74.695-34.639-118.954c-0.546-17.928,2.469-35.372,8.934-51.832c6.215-15.758,15.273-29.844,26.924-41.885  c22.395-23.144,51.691-35.935,82.473-36.013H256c30.922,0.078,60.219,12.869,82.613,36.013  c11.65,12.041,20.708,26.127,26.924,41.885c6.465,16.46,9.479,33.904,8.933,51.832c-1.312,44.228-12.962,84.285-34.653,118.97  l-0.797,1.297c-2.843,4.436-5.81,8.729-8.855,12.837c-13.039,22.832-15.695,42.228-8.229,57.048  c4.419,8.793,13.868,17.305,28.829,26.05c11.213,6.513,25.627,13.181,42.852,19.786c13.604,5.232,36.17,13.213,66.42,21.411  c20.66,6.997,33.623,25.237,33.623,45.726v42.682H18.342v-42.682c0-20.488,12.962-38.729,32.296-45.351  C82.215,397.17,104.781,389.189,118.384,383.957z"/></svg>