<svg xmlns="http://www.w3.org/2000/svg" xmlns:xlink="http://www.w3.org/1999/xlink" version="1.1" x="0px" y="0px" viewBox="0 0 512 512" enable-background="new 0 0 512 512" xml:space="preserve"><g><path d="M255.992,0C114.852,0,0.008,114.844,0.008,256s114.844,256,255.984,256c141.156,0,256-114.844,256-256S397.148,0,255.992,0   z M424.133,424.125c-21.797,21.844-47.234,39-75.578,50.984c-29.312,12.406-60.453,18.672-92.562,18.672   s-63.234-6.266-92.547-18.672c-28.344-11.984-53.781-29.141-75.594-50.984c-21.844-21.844-38.984-47.266-50.953-75.578   C24.492,319.25,18.211,288.125,18.211,256c0-32.109,6.281-63.25,18.688-92.562c11.969-28.281,29.109-53.719,50.953-75.562   c21.859-21.859,47.297-39,75.594-50.969c58.594-24.766,126.531-24.75,185.109,0c28.297,11.969,53.734,29.109,75.578,50.953   c21.859,21.859,39,47.297,50.969,75.578c12.406,29.312,18.688,60.453,18.688,92.562c0,32.125-6.281,63.25-18.688,92.547   C463.133,376.859,445.992,402.281,424.133,424.125z"/><path d="M183.055,198.703c7.906,0,14.344-6.438,14.344-14.344s-6.438-14.344-14.344-14.344s-14.344,6.438-14.344,14.344   S175.148,198.703,183.055,198.703z"/><path d="M328.945,198.703c7.906,0,14.344-6.438,14.344-14.344s-6.438-14.344-14.344-14.344s-14.344,6.438-14.344,14.344   S321.039,198.703,328.945,198.703z"/><path d="M413.898,261.719H98.805c-5.016,0-9.109,4.094-9.109,9.125l0.094,1.594c8.234,85.734,79.703,150.594,166.203,150.594h0.719   c86.5,0,157.969-64.859,166.219-150.844C423.023,265.812,418.93,261.719,413.898,261.719z M402.32,286.859   c-6.438,30.531-22.094,57.875-45.281,79.047c-27.453,25.094-63.094,38.891-100.328,38.891c-37.953,0-73.578-13.797-101.031-38.891   c-23.188-21.172-38.859-48.5-45.297-79.047l-1.453-6.891h294.844L402.32,286.859z"/></g></svg>