<svg xmlns="http://www.w3.org/2000/svg" xmlns:xlink="http://www.w3.org/1999/xlink" version="1.1" x="0px" y="0px" viewBox="0 0 512 512" enable-background="new 0 0 512 512" xml:space="preserve"><g><path d="M384.188,256.5c-2.844,0-5.656,0.109-8.438,0.297l-9.516,0.625l3.922-8.703c4.188-9.266,7.844-18.906,10.859-28.656   c6.984-22.562,10.906-46.625,11.656-71.547c0.609-20.406-2.828-40.281-10.203-59.062c-7.078-17.969-17.438-34.078-30.781-47.891   C325.828,14.875,291.906,0.094,256.156,0c-36.062,0.094-69.984,14.875-95.844,41.562c-13.344,13.812-23.703,29.922-30.781,47.891   c-7.375,18.781-10.812,38.641-10.219,59.062c0.766,24.922,4.688,49,11.672,71.547c5.781,18.719,13.719,36.547,23.578,52.953   l2.219,3.641c3.125,4.984,6.438,9.875,9.875,14.531c9.188,16.406,11.594,29.922,7.172,38.734   c-3.094,6.141-15.266,19.094-61.969,37.062c-13.172,5.062-35.078,12.797-64.672,20.797l-2.031,0.594   c-26.938,9.031-45.031,34.234-45.031,62.734V512h384.062c70.406,0,127.688-57.297,127.688-127.75   C511.875,313.812,454.594,256.5,384.188,256.5z M18.328,493.781v-42.672c0-20.5,12.984-38.734,32.297-45.359   c31.594-8.578,54.156-16.547,67.766-21.781c17.203-6.609,31.641-13.281,42.844-19.797c14.969-8.734,24.406-17.234,28.844-26.047   c7.453-14.812,4.797-34.219-7.641-56.125c-3.656-5.016-6.625-9.312-9.406-13.688l-0.859-1.375   c-21.672-34.688-33.328-74.703-34.641-118.969c-0.547-17.938,2.469-35.375,8.938-51.828c6.203-15.766,15.25-29.844,26.906-41.875   c22.406-23.156,51.688-35.953,82.484-36.016c31.078,0.062,60.359,12.859,82.766,36.016c11.656,12.031,20.703,26.109,26.906,41.875   c6.469,16.453,9.469,33.891,8.938,51.828c-1.25,42.094-11.891,80.438-31.625,113.969l-1.031,1.75l-1.906,0.719   C290,282.859,256.5,331.031,256.5,384.25c0,38.75,17.281,74.969,47.438,99.375l12.578,10.156H18.328z M461.594,461.719   c-20.672,20.688-48.156,32.062-77.406,32.062s-56.75-11.375-77.422-32.062c-20.688-20.688-32.078-48.188-32.078-77.469   c0-29.25,11.391-56.766,32.062-77.438c20.688-20.703,48.188-32.094,77.438-32.094s56.734,11.391,77.406,32.094   c20.688,20.672,32.078,48.188,32.078,77.438C493.672,413.531,482.281,441.031,461.594,461.719z"/><path d="M428.844,353.203l-56.703,56.75l-25.172-25.203c-1.719-1.703-4-2.656-6.438-2.656s-4.719,0.953-6.438,2.672   c-3.531,3.547-3.531,9.328,0,12.891l31.547,31.672c3.438,3.453,9.438,3.453,12.859,0l63.219-63.219   c3.531-3.562,3.531-9.344,0-12.906C438.281,349.75,432.281,349.75,428.844,353.203z"/></g></svg>