<svg xmlns="http://www.w3.org/2000/svg" xmlns:xlink="http://www.w3.org/1999/xlink" version="1.1" x="0px" y="0px" viewBox="0 0 512 512" enable-background="new 0 0 512 512" xml:space="preserve"><g><g><path d="M464.836,313.797l1.156-4.203h45.875V202.406h-45.875l-1.156-4.203c-4.711-17.062-11.547-33.562-20.336-49.062    l-2.141-3.797l32.445-32.453l-75.766-75.781l-32.438,32.453l-3.797-2.156c-15.445-8.781-31.945-15.625-49.039-20.344l-4.203-1.156    V0H202.438v45.906l-4.203,1.172c-17.078,4.688-33.578,11.547-49.039,20.328l-3.797,2.156l-32.453-32.453l-75.75,75.781    l32.453,32.484l-2.156,3.781c-8.758,15.422-15.594,31.922-20.328,49.047l-1.156,4.203H0.133v107.188h45.875l1.156,4.203    c4.727,17.125,11.562,33.641,20.328,49.062l2.156,3.797l-32.453,32.469l75.75,75.781l32.453-32.438l3.797,2.141    c15.484,8.781,31.977,15.625,49.039,20.328l4.203,1.156V512h107.125v-45.906l4.203-1.156c17.07-4.703,33.578-11.562,49.039-20.328    l3.797-2.141l32.438,32.438l75.766-75.781l-32.453-32.469l2.156-3.797C453.289,347.375,460.125,330.875,464.836,313.797z     M449.07,399.125l-50.031,50.031l-29.391-29.391l-15.836,9.016c-14.086,8-29.18,14.281-44.883,18.609l-17.562,4.859v41.531    h-70.734V452.25l-17.578-4.859c-15.688-4.328-30.781-10.609-44.883-18.609l-15.836-9.016l-29.391,29.391l-50.008-50.031    l29.375-29.391l-8.992-15.859c-8.039-14.125-14.297-29.25-18.609-44.906l-4.852-17.578H18.328v-70.766h41.531l4.852-17.562    c4.297-15.609,10.555-30.719,18.602-44.938l9-15.844l-29.375-29.391l50.008-50.031l29.391,29.375l15.836-8.984    c14.102-8.016,29.195-14.281,44.883-18.625l17.578-4.844V18.234h70.734v41.547l17.562,4.844    c15.703,4.344,30.797,10.609,44.891,18.625l15.828,9l29.391-29.391l50.031,50.031l-29.383,29.391l8.992,15.844    c8.055,14.219,14.312,29.328,18.609,44.938l4.852,17.562h41.523v70.766h-41.523l-4.852,17.578    c-4.297,15.594-10.555,30.719-18.602,44.906l-9,15.859L449.07,399.125z"/></g><g><path d="M255.992,157.906c-54.055,0-98.031,44.016-98.031,98.094s43.977,98.094,98.031,98.094s98.031-44.016,98.031-98.094    S310.047,157.906,255.992,157.906z M312.461,312.469c-15.078,15.094-35.133,23.406-56.469,23.406    c-21.328,0-41.375-8.312-56.453-23.406c-15.078-15.078-23.383-35.125-23.383-56.469c0-21.328,8.305-41.375,23.383-56.469    c15.102-15.094,35.141-23.406,56.453-23.406c21.32,0,41.367,8.312,56.469,23.406c15.078,15.094,23.383,35.141,23.383,56.469    C335.844,277.344,327.539,297.391,312.461,312.469z"/></g></g></svg>