<svg xmlns="http://www.w3.org/2000/svg" xmlns:xlink="http://www.w3.org/1999/xlink" version="1.1" x="0px" y="0px" viewBox="0 0 512 512" enable-background="new 0 0 512 512" xml:space="preserve"><g><path d="M488.062,6.141H23.953C10.75,6.141,0,16.891,0,30.094v356.109c0,13.219,10.75,23.969,23.953,23.969h65.031v86.703   c0,6.781,8.25,11.266,13.875,7.766l146.219-94.469h238.984c13.188,0,23.938-10.75,23.938-23.969V30.094   C512,16.891,501.25,6.141,488.062,6.141z M493.766,391.922H243.719l-136.5,88.234v-88.234H18.234V24.375h475.531V391.922z"/><path d="M98.094,129.25h315.812c5.031,0,9.125-4.094,9.125-9.125c0-5.016-4.094-9.109-9.125-9.109H98.094   c-5.016,0-9.109,4.094-9.109,9.109C88.984,125.156,93.078,129.25,98.094,129.25z"/><path d="M98.094,218.281h315.812c5.031,0,9.125-4.078,9.125-9.109c0-5.047-4.094-9.125-9.125-9.125H98.094   c-5.016,0-9.109,4.078-9.109,9.125C88.984,214.203,93.078,218.281,98.094,218.281z"/><path d="M98.094,307.312h143.078c5.016,0,9.109-4.094,9.109-9.125s-4.094-9.125-9.109-9.125H98.094   c-5.016,0-9.109,4.094-9.109,9.125S93.078,307.312,98.094,307.312z"/></g></svg>