<svg xmlns="http://www.w3.org/2000/svg" xmlns:xlink="http://www.w3.org/1999/xlink" version="1.1" x="0px" y="0px" viewBox="0 0 512 512" enable-background="new 0 0 512 512" xml:space="preserve"><g><path d="M137.266,176.109h296.688c5.031,0,9.109-4.094,9.109-9.125s-4.078-9.109-9.109-9.109H137.266   c-5.023,0-9.109,4.078-9.109,9.109S132.242,176.109,137.266,176.109z"/><path d="M137.266,354.109h118.688c5.016,0,9.094-4.094,9.094-9.109V226.312c0-5.016-4.078-9.094-9.094-9.094H137.266   c-5.023,0-9.109,4.078-9.109,9.094V345C128.156,350.016,132.242,354.109,137.266,354.109z M146.375,235.438h100.461v100.453   H146.375V235.438z"/><path d="M433.953,217.219H315.266c-5,0-9.094,4.078-9.094,9.094c0,5.031,4.094,9.125,9.094,9.125h118.688   c5.031,0,9.109-4.094,9.109-9.125C443.062,221.297,438.984,217.219,433.953,217.219z"/><path d="M433.953,276.547H315.266c-5,0-9.094,4.094-9.094,9.109c0,5.031,4.094,9.125,9.094,9.125h118.688   c5.031,0,9.109-4.094,9.109-9.125C443.062,280.641,438.984,276.547,433.953,276.547z"/><path d="M433.953,335.891H315.266c-5,0-9.094,4.094-9.094,9.109s4.094,9.109,9.094,9.109h118.688c5.031,0,9.109-4.094,9.109-9.109   S438.984,335.891,433.953,335.891z"/><path d="M502.891,68.875H68.328c-5.023,0-9.109,4.094-9.109,9.094l0.117,326.375c0,11.328-9.211,20.547-20.539,20.547   c-11.352,0-20.586-9.219-20.586-20.547V122.469c0-5.031-4.086-9.125-9.109-9.125S0,117.438,0,122.469v281.875   c0,21.375,17.391,38.781,38.773,38.781h434.555C494.641,443.062,512,425.672,512,404.344V77.969   C512,72.969,507.922,68.875,502.891,68.875z M493.797,404.344c0,11.328-9.219,20.547-20.547,20.547H72.617l2.719-7.641   c1.469-4.141,2.211-8.469,2.211-12.906V87.094h416.25V404.344z"/></g></svg>