<svg xmlns="http://www.w3.org/2000/svg" xmlns:xlink="http://www.w3.org/1999/xlink" xml:space="preserve" version="1.1" style="shape-rendering:geometricPrecision;text-rendering:geometricPrecision;image-rendering:optimizeQuality;" viewBox="0 0 256 363.75" x="0px" y="0px" fill-rule="evenodd" clip-rule="evenodd"><defs><style type="text/css">
   
    .fil0 {fill:black;fill-rule:nonzero}
   
  </style></defs><g><path class="fil0" d="M17 256c38,13 75,19 112,19 37,-1 73,-7 110,-19 -3,-58 -52,-105 -111,-105 -59,0 -108,47 -111,105zm111 -256c40,0 72,32 72,72 0,29 -17,55 -43,66 57,13 99,64 99,124 0,4 -2,7 -6,8 -40,14 -80,21 -121,21 -41,1 -82,-6 -123,-20 -3,-1 -6,-5 -6,-9 0,-60 42,-111 99,-124 -25,-11 -43,-37 -43,-66 0,-40 32,-72 72,-72zm0 17c-30,0 -55,25 -55,55 0,30 25,55 55,55 30,0 55,-25 55,-55 0,-30 -25,-55 -55,-55z"/></g><text x="0" y="306" fill="#000000" font-size="5px" font-weight="bold" font-family="'Helvetica Neue', Helvetica, Arial-Unicode, Arial, Sans-serif">Created by Saifurrijal</text><text x="0" y="311" fill="#000000" font-size="5px" font-weight="bold" font-family="'Helvetica Neue', Helvetica, Arial-Unicode, Arial, Sans-serif">from the Noun Project</text></svg>